# xmcd
#
# Track frame offsets:
#	150
#	23254
#	47719
#	68142
#	90907
#	115811
#	138843
#	159627
#
# Disc length: 2402 seconds
# Revision: 1
# Processed by: cddbd v1.5.2PL0 Copyright (c) Steve Scherf et al.
# Submitted via: dBpowerAMP V12.0
#
DISCID=56096008
DTITLE=Clayton Doley - Bayou Billabong
DYEAR=2015
DGENRE=Blues Soul
TTITLE0=Disbelief
TTITLE1=I Live For You
TTITLE2=Bayou Billabong
TTITLE3=Lose It
TTITLE4=Truly Amazing
TTITLE5=Waiting For The Coffee
TTITLE6=We're Still Changing
TTITLE7=Starting Right Now
EXTD=
EXTT0=
EXTT1=
EXTT2=
EXTT3=
EXTT4=
EXTT5=
EXTT6=
EXTT7=
PLAYORDER=
